<?xml version="1.0" standalone="no"?>
<!DOCTYPE svg PUBLIC "-//W3C//DTD SVG 20010904//EN"
 "http://www.w3.org/TR/2001/REC-SVG-20010904/DTD/svg10.dtd">
<svg version="1.0" xmlns="http://www.w3.org/2000/svg"
 width="700.000000pt" height="700.000000pt" viewBox="0 0 700.000000 700.000000"
 preserveAspectRatio="xMidYMid meet">
<metadata>
Created by potrace 1.14, written by Peter Selinger 2001-2017
</metadata>
<g transform="translate(0.000000,700.000000) scale(0.100000,-0.100000)"
fill="#000000" stroke="none">
<path d="M3260 6619 c-1015 -90 -1900 -641 -2423 -1510 -526 -873 -590 -1954
-171 -2884 262 -582 703 -1078 1246 -1401 314 -186 643 -313 998 -384 231 -46
332 -55 615 -54 277 0 401 12 626 60 651 137 1256 483 1681 961 645 728 921
1663 767 2603 -51 308 -140 584 -284 875 -167 339 -346 586 -616 852 -642 631
-1552 960 -2439 882z m640 -434 c597 -93 1117 -354 1534 -770 440 -440 710
-1016 777 -1655 15 -144 6 -509 -16 -650 -192 -1239 -1170 -2170 -2415 -2300
-124 -13 -400 -13 -531 0 -489 48 -960 233 -1364 534 -159 119 -413 373 -533
533 -273 366 -445 783 -519 1260 -27 170 -24 595 5 771 78 477 255 887 551
1272 96 126 358 382 491 482 412 307 856 480 1375 538 123 13 522 4 645 -15z"/>
<path d="M3398 5851 c-74 -24 -115 -50 -171 -110 -58 -61 -92 -130 -107 -211
-13 -72 -7 -128 21 -210 10 -30 80 -327 154 -660 75 -333 138 -612 141 -621 4
-14 25 -17 117 -22 130 -5 175 -20 275 -87 77 -53 152 -145 179 -220 10 -28
21 -50 25 -50 4 0 279 61 610 136 332 75 636 140 676 145 168 19 299 129 346
288 34 114 16 222 -61 374 -165 329 -448 642 -779 863 -347 232 -720 359
-1153 393 -176 14 -205 13 -273 -8z"/>
<path d="M1795 5017 c-99 -33 -174 -95 -240 -198 -201 -311 -322 -641 -370
-1002 -20 -153 -20 -441 0 -594 39 -294 126 -567 267 -830 64 -119 124 -183
216 -226 61 -29 75 -32 167 -32 87 0 107 3 157 27 79 36 120 70 176 142 27 33
253 250 504 480 l456 420 -35 63 c-46 83 -63 150 -63 249 0 117 34 221 102
307 l30 38 -49 52 c-232 248 -850 924 -872 954 -41 56 -98 103 -160 131 -68
31 -220 40 -286 19z"/>
<path d="M3989 3278 c-13 -30 -53 -82 -90 -120 -113 -116 -269 -172 -422 -151
-48 7 -70 6 -73 -1 -2 -6 -87 -278 -188 -603 -102 -326 -196 -617 -210 -645
-114 -235 2 -497 254 -576 79 -24 438 -24 600 1 254 40 475 109 705 222 398
195 698 463 956 853 78 117 99 176 99 274 0 200 -130 357 -332 402 -46 10
-1040 319 -1254 389 -17 6 -24 -1 -45 -45z"/>
</g>
</svg>
